<svg width="25" height="24" viewBox="0 0 25 24" fill="none" xmlns="http://www.w3.org/2000/svg">
<path d="M7 2C6.33696 2 5.70107 2.26339 5.23223 2.73223C4.76339 3.20107 4.5 3.83696 4.5 4.5V19.5C4.5 20.163 4.76339 20.7989 5.23223 21.2678C5.70107 21.7366 6.33696 22 7 22H20.25C20.4489 22 20.6397 21.921 20.7803 21.7803C20.921 21.6397 21 21.4489 21 21.25C21 21.0511 20.921 20.8603 20.7803 20.7197C20.6397 20.579 20.4489 20.5 20.25 20.5H7C6.73478 20.5 6.48043 20.3946 6.29289 20.2071C6.10536 20.0196 6 19.7652 6 19.5H20.25C20.4489 19.5 20.6397 19.421 20.7803 19.2803C20.921 19.1397 21 18.9489 21 18.75V4.5C21 4.1717 20.9353 3.84661 20.8097 3.54329C20.6841 3.23998 20.4999 2.96438 20.2678 2.73223C20.0356 2.50009 19.76 2.31594 19.4567 2.1903C19.1534 2.06466 18.8283 2 18.5 2H7ZM8.5 5H16.5C16.7652 5 17.0196 5.10536 17.2071 5.29289C17.3946 5.48043 17.5 5.73478 17.5 6V7C17.5 7.26522 17.3946 7.51957 17.2071 7.70711C17.0196 7.89464 16.7652 8 16.5 8H8.5C8.23478 8 7.98043 7.89464 7.79289 7.70711C7.60536 7.51957 7.5 7.26522 7.5 7V6C7.5 5.73478 7.60536 5.48043 7.79289 5.29289C7.98043 5.10536 8.23478 5 8.5 5Z" fill="#4C7AB0"/>
</svg>
